<mxfile host="65bd71144e">
    <diagram name="第 1 页" id="6uBheFIESZyPh4wLSKKq">
        <mxGraphModel dx="2413" dy="1032" grid="1" gridSize="10" guides="1" tooltips="1" connect="1" arrows="1" fold="1" page="1" pageScale="1" pageWidth="827" pageHeight="1169" math="0" shadow="0">
            <root>
                <mxCell id="0"/>
                <mxCell id="1" parent="0"/>
                <mxCell id="1xuvL79Rce3t4JZrsumN-41" value="" style="group;fontFamily=Times New Roman;fontSize=19;" parent="1" vertex="1" connectable="0">
                    <mxGeometry x="-500" y="160" width="190" height="221" as="geometry"/>
                </mxCell>
                <mxCell id="1xuvL79Rce3t4JZrsumN-29" value="23" style="ellipse;whiteSpace=wrap;html=1;fontFamily=Times New Roman;fontSize=19;fontColor=default;" parent="1xuvL79Rce3t4JZrsumN-41" vertex="1">
                    <mxGeometry x="125" y="101" width="40" height="40" as="geometry"/>
                </mxCell>
                <mxCell id="1xuvL79Rce3t4JZrsumN-30" style="edgeStyle=none;shape=connector;rounded=0;orthogonalLoop=1;jettySize=auto;html=1;exitX=1;exitY=1;exitDx=0;exitDy=0;entryX=0.5;entryY=0;entryDx=0;entryDy=0;labelBackgroundColor=default;strokeColor=default;align=center;verticalAlign=middle;fontFamily=Times New Roman;fontSize=19;fontColor=default;endArrow=none;endFill=0;" parent="1xuvL79Rce3t4JZrsumN-41" edge="1">
                    <mxGeometry relative="1" as="geometry">
                        <mxPoint x="129.14213562373106" y="85.14213562373106" as="sourcePoint"/>
                        <mxPoint x="140" y="101" as="targetPoint"/>
                    </mxGeometry>
                </mxCell>
                <mxCell id="1xuvL79Rce3t4JZrsumN-32" value="20" style="ellipse;whiteSpace=wrap;html=1;fontFamily=Times New Roman;fontSize=19;fontColor=default;" parent="1xuvL79Rce3t4JZrsumN-41" vertex="1">
                    <mxGeometry x="100" y="51" width="40" height="40" as="geometry"/>
                </mxCell>
                <mxCell id="1xuvL79Rce3t4JZrsumN-33" value="12" style="ellipse;whiteSpace=wrap;html=1;fontFamily=Times New Roman;fontSize=19;fontColor=default;" parent="1xuvL79Rce3t4JZrsumN-41" vertex="1">
                    <mxGeometry y="51" width="40" height="40" as="geometry"/>
                </mxCell>
                <mxCell id="1xuvL79Rce3t4JZrsumN-34" style="edgeStyle=none;shape=connector;rounded=0;orthogonalLoop=1;jettySize=auto;html=1;exitX=0;exitY=1;exitDx=0;exitDy=0;entryX=1;entryY=0;entryDx=0;entryDy=0;labelBackgroundColor=default;strokeColor=default;align=center;verticalAlign=middle;fontFamily=Times New Roman;fontSize=19;fontColor=default;endArrow=none;endFill=0;" parent="1xuvL79Rce3t4JZrsumN-41" source="1xuvL79Rce3t4JZrsumN-36" target="1xuvL79Rce3t4JZrsumN-33" edge="1">
                    <mxGeometry relative="1" as="geometry"/>
                </mxCell>
                <mxCell id="1xuvL79Rce3t4JZrsumN-35" style="edgeStyle=none;shape=connector;rounded=0;orthogonalLoop=1;jettySize=auto;html=1;exitX=1;exitY=1;exitDx=0;exitDy=0;entryX=0;entryY=0;entryDx=0;entryDy=0;labelBackgroundColor=default;strokeColor=default;align=center;verticalAlign=middle;fontFamily=Times New Roman;fontSize=19;fontColor=default;endArrow=none;endFill=0;" parent="1xuvL79Rce3t4JZrsumN-41" source="1xuvL79Rce3t4JZrsumN-36" target="1xuvL79Rce3t4JZrsumN-32" edge="1">
                    <mxGeometry relative="1" as="geometry"/>
                </mxCell>
                <mxCell id="1xuvL79Rce3t4JZrsumN-36" value="18" style="ellipse;whiteSpace=wrap;html=1;fontFamily=Times New Roman;fontSize=19;fontColor=default;" parent="1xuvL79Rce3t4JZrsumN-41" vertex="1">
                    <mxGeometry x="50" width="40" height="40" as="geometry"/>
                </mxCell>
                <mxCell id="1xuvL79Rce3t4JZrsumN-37" value="19" style="ellipse;whiteSpace=wrap;html=1;fontFamily=Times New Roman;fontSize=19;" parent="1xuvL79Rce3t4JZrsumN-41" vertex="1">
                    <mxGeometry x="75" y="101" width="40" height="40" as="geometry"/>
                </mxCell>
                <mxCell id="1xuvL79Rce3t4JZrsumN-31" style="edgeStyle=none;shape=connector;rounded=0;orthogonalLoop=1;jettySize=auto;html=1;exitX=0;exitY=1;exitDx=0;exitDy=0;entryX=0.5;entryY=0;entryDx=0;entryDy=0;labelBackgroundColor=default;strokeColor=default;align=center;verticalAlign=middle;fontFamily=Times New Roman;fontSize=19;fontColor=default;endArrow=none;endFill=0;" parent="1xuvL79Rce3t4JZrsumN-41" source="1xuvL79Rce3t4JZrsumN-32" target="1xuvL79Rce3t4JZrsumN-37" edge="1">
                    <mxGeometry relative="1" as="geometry"/>
                </mxCell>
                <mxCell id="1xuvL79Rce3t4JZrsumN-38" value="26" style="ellipse;whiteSpace=wrap;html=1;fontFamily=Times New Roman;fontSize=19;fontColor=default;" parent="1xuvL79Rce3t4JZrsumN-41" vertex="1">
                    <mxGeometry x="150" y="151" width="40" height="40" as="geometry"/>
                </mxCell>
                <mxCell id="1xuvL79Rce3t4JZrsumN-39" style="edgeStyle=none;shape=connector;rounded=0;orthogonalLoop=1;jettySize=auto;html=1;exitX=1;exitY=1;exitDx=0;exitDy=0;entryX=0.5;entryY=0;entryDx=0;entryDy=0;labelBackgroundColor=default;strokeColor=default;align=center;verticalAlign=middle;fontFamily=Times New Roman;fontSize=19;fontColor=default;endArrow=none;endFill=0;" parent="1xuvL79Rce3t4JZrsumN-41" edge="1">
                    <mxGeometry relative="1" as="geometry">
                        <mxPoint x="159.14213562373106" y="135.14213562373106" as="sourcePoint"/>
                        <mxPoint x="170" y="151" as="targetPoint"/>
                    </mxGeometry>
                </mxCell>
                <mxCell id="1xuvL79Rce3t4JZrsumN-40" value="&lt;span style=&quot;font-size: 19px;&quot;&gt;(b)&lt;/span&gt;" style="text;html=1;strokeColor=none;fillColor=none;align=center;verticalAlign=middle;whiteSpace=wrap;rounded=0;fontSize=19;fontFamily=Times New Roman;fontColor=default;" parent="1xuvL79Rce3t4JZrsumN-41" vertex="1">
                    <mxGeometry x="40" y="191" width="60" height="30" as="geometry"/>
                </mxCell>
                <mxCell id="1xuvL79Rce3t4JZrsumN-42" value="" style="group;fontFamily=Times New Roman;fontSize=19;" parent="1" vertex="1" connectable="0">
                    <mxGeometry x="-760" y="160" width="190" height="221" as="geometry"/>
                </mxCell>
                <mxCell id="1xuvL79Rce3t4JZrsumN-43" value="26" style="ellipse;whiteSpace=wrap;html=1;fontFamily=Times New Roman;fontSize=19;fontColor=default;" parent="1xuvL79Rce3t4JZrsumN-42" vertex="1">
                    <mxGeometry x="125" y="101" width="40" height="40" as="geometry"/>
                </mxCell>
                <mxCell id="1xuvL79Rce3t4JZrsumN-44" style="edgeStyle=none;shape=connector;rounded=0;orthogonalLoop=1;jettySize=auto;html=1;exitX=1;exitY=1;exitDx=0;exitDy=0;entryX=0.5;entryY=0;entryDx=0;entryDy=0;labelBackgroundColor=default;strokeColor=default;align=center;verticalAlign=middle;fontFamily=Times New Roman;fontSize=19;fontColor=default;endArrow=none;endFill=0;" parent="1xuvL79Rce3t4JZrsumN-42" source="1xuvL79Rce3t4JZrsumN-45" target="1xuvL79Rce3t4JZrsumN-43" edge="1">
                    <mxGeometry relative="1" as="geometry"/>
                </mxCell>
                <mxCell id="1xuvL79Rce3t4JZrsumN-45" value="23" style="ellipse;whiteSpace=wrap;html=1;fontFamily=Times New Roman;fontSize=19;fontColor=default;" parent="1xuvL79Rce3t4JZrsumN-42" vertex="1">
                    <mxGeometry x="100" y="51" width="40" height="40" as="geometry"/>
                </mxCell>
                <mxCell id="1xuvL79Rce3t4JZrsumN-46" value="12" style="ellipse;whiteSpace=wrap;html=1;fontFamily=Times New Roman;fontSize=19;fontColor=default;" parent="1xuvL79Rce3t4JZrsumN-42" vertex="1">
                    <mxGeometry y="51" width="40" height="40" as="geometry"/>
                </mxCell>
                <mxCell id="1xuvL79Rce3t4JZrsumN-47" style="edgeStyle=none;shape=connector;rounded=0;orthogonalLoop=1;jettySize=auto;html=1;exitX=0;exitY=1;exitDx=0;exitDy=0;entryX=1;entryY=0;entryDx=0;entryDy=0;labelBackgroundColor=default;strokeColor=default;align=center;verticalAlign=middle;fontFamily=Times New Roman;fontSize=19;fontColor=default;endArrow=none;endFill=0;" parent="1xuvL79Rce3t4JZrsumN-42" source="1xuvL79Rce3t4JZrsumN-49" target="1xuvL79Rce3t4JZrsumN-46" edge="1">
                    <mxGeometry relative="1" as="geometry"/>
                </mxCell>
                <mxCell id="1xuvL79Rce3t4JZrsumN-48" style="edgeStyle=none;shape=connector;rounded=0;orthogonalLoop=1;jettySize=auto;html=1;exitX=1;exitY=1;exitDx=0;exitDy=0;entryX=0;entryY=0;entryDx=0;entryDy=0;labelBackgroundColor=default;strokeColor=default;align=center;verticalAlign=middle;fontFamily=Times New Roman;fontSize=19;fontColor=default;endArrow=none;endFill=0;" parent="1xuvL79Rce3t4JZrsumN-42" source="1xuvL79Rce3t4JZrsumN-49" target="1xuvL79Rce3t4JZrsumN-45" edge="1">
                    <mxGeometry relative="1" as="geometry"/>
                </mxCell>
                <mxCell id="1xuvL79Rce3t4JZrsumN-49" value="18" style="ellipse;whiteSpace=wrap;html=1;fontFamily=Times New Roman;fontSize=19;fontColor=default;" parent="1xuvL79Rce3t4JZrsumN-42" vertex="1">
                    <mxGeometry x="50" width="40" height="40" as="geometry"/>
                </mxCell>
                <mxCell id="1xuvL79Rce3t4JZrsumN-55" style="edgeStyle=none;shape=connector;rounded=0;orthogonalLoop=1;jettySize=auto;html=1;exitX=0;exitY=1;exitDx=0;exitDy=0;labelBackgroundColor=default;strokeColor=default;align=center;verticalAlign=middle;fontFamily=Times New Roman;fontSize=19;fontColor=default;endArrow=none;endFill=0;" parent="1xuvL79Rce3t4JZrsumN-42" source="1xuvL79Rce3t4JZrsumN-50" edge="1">
                    <mxGeometry relative="1" as="geometry">
                        <mxPoint x="70" y="151" as="targetPoint"/>
                    </mxGeometry>
                </mxCell>
                <mxCell id="1xuvL79Rce3t4JZrsumN-50" value="20" style="ellipse;whiteSpace=wrap;html=1;fontFamily=Times New Roman;fontSize=19;" parent="1xuvL79Rce3t4JZrsumN-42" vertex="1">
                    <mxGeometry x="75" y="101" width="40" height="40" as="geometry"/>
                </mxCell>
                <mxCell id="1xuvL79Rce3t4JZrsumN-51" style="edgeStyle=none;shape=connector;rounded=0;orthogonalLoop=1;jettySize=auto;html=1;exitX=0;exitY=1;exitDx=0;exitDy=0;entryX=0.5;entryY=0;entryDx=0;entryDy=0;labelBackgroundColor=default;strokeColor=default;align=center;verticalAlign=middle;fontFamily=Times New Roman;fontSize=19;fontColor=default;endArrow=none;endFill=0;" parent="1xuvL79Rce3t4JZrsumN-42" source="1xuvL79Rce3t4JZrsumN-45" target="1xuvL79Rce3t4JZrsumN-50" edge="1">
                    <mxGeometry relative="1" as="geometry"/>
                </mxCell>
                <mxCell id="1xuvL79Rce3t4JZrsumN-52" value="19" style="ellipse;whiteSpace=wrap;html=1;fontFamily=Times New Roman;fontSize=19;fontColor=default;" parent="1xuvL79Rce3t4JZrsumN-42" vertex="1">
                    <mxGeometry x="50" y="151" width="40" height="40" as="geometry"/>
                </mxCell>
                <mxCell id="1xuvL79Rce3t4JZrsumN-54" value="&lt;span style=&quot;font-size: 19px;&quot;&gt;(a)&lt;/span&gt;" style="text;html=1;strokeColor=none;fillColor=none;align=center;verticalAlign=middle;whiteSpace=wrap;rounded=0;fontSize=19;fontFamily=Times New Roman;fontColor=default;" parent="1xuvL79Rce3t4JZrsumN-42" vertex="1">
                    <mxGeometry x="40" y="191" width="60" height="30" as="geometry"/>
                </mxCell>
                <mxCell id="1xuvL79Rce3t4JZrsumN-56" value="" style="group;fontFamily=Times New Roman;fontSize=19;" parent="1" vertex="1" connectable="0">
                    <mxGeometry x="-237" y="160" width="190" height="221" as="geometry"/>
                </mxCell>
                <mxCell id="1xuvL79Rce3t4JZrsumN-57" value="26" style="ellipse;whiteSpace=wrap;html=1;fontFamily=Times New Roman;fontSize=19;fontColor=default;" parent="1xuvL79Rce3t4JZrsumN-56" vertex="1">
                    <mxGeometry x="125" y="101" width="40" height="40" as="geometry"/>
                </mxCell>
                <mxCell id="1xuvL79Rce3t4JZrsumN-58" style="edgeStyle=none;shape=connector;rounded=0;orthogonalLoop=1;jettySize=auto;html=1;exitX=1;exitY=1;exitDx=0;exitDy=0;entryX=0.5;entryY=0;entryDx=0;entryDy=0;labelBackgroundColor=default;strokeColor=default;align=center;verticalAlign=middle;fontFamily=Times New Roman;fontSize=19;fontColor=default;endArrow=none;endFill=0;" parent="1xuvL79Rce3t4JZrsumN-56" source="1xuvL79Rce3t4JZrsumN-59" target="1xuvL79Rce3t4JZrsumN-57" edge="1">
                    <mxGeometry relative="1" as="geometry"/>
                </mxCell>
                <mxCell id="1xuvL79Rce3t4JZrsumN-59" value="23" style="ellipse;whiteSpace=wrap;html=1;fontFamily=Times New Roman;fontSize=19;fontColor=default;" parent="1xuvL79Rce3t4JZrsumN-56" vertex="1">
                    <mxGeometry x="100" y="51" width="40" height="40" as="geometry"/>
                </mxCell>
                <mxCell id="1xuvL79Rce3t4JZrsumN-73" style="edgeStyle=none;shape=connector;rounded=0;orthogonalLoop=1;jettySize=auto;html=1;exitX=0;exitY=1;exitDx=0;exitDy=0;entryX=0.5;entryY=0;entryDx=0;entryDy=0;labelBackgroundColor=default;strokeColor=default;align=center;verticalAlign=middle;fontFamily=Times New Roman;fontSize=19;fontColor=default;endArrow=none;endFill=0;" parent="1xuvL79Rce3t4JZrsumN-56" edge="1">
                    <mxGeometry relative="1" as="geometry">
                        <mxPoint x="5.857864376268935" y="85.14213562373106" as="sourcePoint"/>
                        <mxPoint x="-4" y="101" as="targetPoint"/>
                    </mxGeometry>
                </mxCell>
                <mxCell id="1xuvL79Rce3t4JZrsumN-74" style="edgeStyle=none;shape=connector;rounded=0;orthogonalLoop=1;jettySize=auto;html=1;exitX=1;exitY=1;exitDx=0;exitDy=0;entryX=0.5;entryY=0;entryDx=0;entryDy=0;labelBackgroundColor=default;strokeColor=default;align=center;verticalAlign=middle;fontFamily=Times New Roman;fontSize=19;fontColor=default;endArrow=none;endFill=0;" parent="1xuvL79Rce3t4JZrsumN-56" source="1xuvL79Rce3t4JZrsumN-60" target="1xuvL79Rce3t4JZrsumN-72" edge="1">
                    <mxGeometry relative="1" as="geometry"/>
                </mxCell>
                <mxCell id="1xuvL79Rce3t4JZrsumN-60" value="18" style="ellipse;whiteSpace=wrap;html=1;fontFamily=Times New Roman;fontSize=19;fontColor=default;" parent="1xuvL79Rce3t4JZrsumN-56" vertex="1">
                    <mxGeometry y="51" width="40" height="40" as="geometry"/>
                </mxCell>
                <mxCell id="1xuvL79Rce3t4JZrsumN-61" style="edgeStyle=none;shape=connector;rounded=0;orthogonalLoop=1;jettySize=auto;html=1;exitX=0;exitY=1;exitDx=0;exitDy=0;entryX=1;entryY=0;entryDx=0;entryDy=0;labelBackgroundColor=default;strokeColor=default;align=center;verticalAlign=middle;fontFamily=Times New Roman;fontSize=19;fontColor=default;endArrow=none;endFill=0;" parent="1xuvL79Rce3t4JZrsumN-56" source="1xuvL79Rce3t4JZrsumN-63" target="1xuvL79Rce3t4JZrsumN-60" edge="1">
                    <mxGeometry relative="1" as="geometry"/>
                </mxCell>
                <mxCell id="1xuvL79Rce3t4JZrsumN-62" style="edgeStyle=none;shape=connector;rounded=0;orthogonalLoop=1;jettySize=auto;html=1;exitX=1;exitY=1;exitDx=0;exitDy=0;entryX=0;entryY=0;entryDx=0;entryDy=0;labelBackgroundColor=default;strokeColor=default;align=center;verticalAlign=middle;fontFamily=Times New Roman;fontSize=19;fontColor=default;endArrow=none;endFill=0;" parent="1xuvL79Rce3t4JZrsumN-56" source="1xuvL79Rce3t4JZrsumN-63" target="1xuvL79Rce3t4JZrsumN-59" edge="1">
                    <mxGeometry relative="1" as="geometry"/>
                </mxCell>
                <mxCell id="1xuvL79Rce3t4JZrsumN-63" value="20" style="ellipse;whiteSpace=wrap;html=1;fontFamily=Times New Roman;fontSize=19;fontColor=default;" parent="1xuvL79Rce3t4JZrsumN-56" vertex="1">
                    <mxGeometry x="50" width="40" height="40" as="geometry"/>
                </mxCell>
                <mxCell id="1xuvL79Rce3t4JZrsumN-68" value="&lt;span style=&quot;font-size: 19px;&quot;&gt;(c)&lt;/span&gt;" style="text;html=1;strokeColor=none;fillColor=none;align=center;verticalAlign=middle;whiteSpace=wrap;rounded=0;fontSize=19;fontFamily=Times New Roman;fontColor=default;" parent="1xuvL79Rce3t4JZrsumN-56" vertex="1">
                    <mxGeometry x="40" y="191" width="60" height="30" as="geometry"/>
                </mxCell>
                <mxCell id="1xuvL79Rce3t4JZrsumN-71" value="12" style="ellipse;whiteSpace=wrap;html=1;fontFamily=Times New Roman;fontSize=19;fontColor=default;" parent="1xuvL79Rce3t4JZrsumN-56" vertex="1">
                    <mxGeometry x="-24" y="101" width="40" height="40" as="geometry"/>
                </mxCell>
                <mxCell id="1xuvL79Rce3t4JZrsumN-72" value="19" style="ellipse;whiteSpace=wrap;html=1;fontFamily=Times New Roman;fontSize=19;fontColor=default;" parent="1xuvL79Rce3t4JZrsumN-56" vertex="1">
                    <mxGeometry x="26" y="101" width="40" height="40" as="geometry"/>
                </mxCell>
                <mxCell id="1xuvL79Rce3t4JZrsumN-80" value="" style="group;fontFamily=Times New Roman;fontSize=19;" parent="1" vertex="1" connectable="0">
                    <mxGeometry x="-595" y="211" width="90" height="31.5" as="geometry"/>
                </mxCell>
                <mxCell id="1xuvL79Rce3t4JZrsumN-76" value="&lt;span style=&quot;font-size: 19px;&quot;&gt;&lt;font style=&quot;font-size: 19px;&quot;&gt;LL（23）&lt;/font&gt;&lt;/span&gt;" style="text;html=1;strokeColor=none;fillColor=none;align=center;verticalAlign=middle;whiteSpace=wrap;rounded=0;fontSize=19;fontFamily=Times New Roman;fontColor=default;" parent="1xuvL79Rce3t4JZrsumN-80" vertex="1">
                    <mxGeometry width="90" height="30" as="geometry"/>
                </mxCell>
                <mxCell id="1xuvL79Rce3t4JZrsumN-79" value="" style="endArrow=classic;html=1;rounded=0;labelBackgroundColor=default;strokeColor=default;align=center;verticalAlign=middle;fontFamily=Times New Roman;fontSize=19;fontColor=default;shape=connector;edgeStyle=none;" parent="1xuvL79Rce3t4JZrsumN-80" edge="1">
                    <mxGeometry width="50" height="50" relative="1" as="geometry">
                        <mxPoint y="31.5" as="sourcePoint"/>
                        <mxPoint x="80" y="31.5" as="targetPoint"/>
                    </mxGeometry>
                </mxCell>
                <mxCell id="1xuvL79Rce3t4JZrsumN-81" value="" style="group;fontFamily=Times New Roman;fontSize=19;" parent="1" vertex="1" connectable="0">
                    <mxGeometry x="-337.85" y="211" width="90" height="31.5" as="geometry"/>
                </mxCell>
                <mxCell id="1xuvL79Rce3t4JZrsumN-82" value="&lt;span style=&quot;font-size: 19px;&quot;&gt;&lt;font style=&quot;font-size: 19px;&quot;&gt;RR（18）&lt;/font&gt;&lt;/span&gt;" style="text;html=1;strokeColor=none;fillColor=none;align=center;verticalAlign=middle;whiteSpace=wrap;rounded=0;fontSize=19;fontFamily=Times New Roman;fontColor=default;" parent="1xuvL79Rce3t4JZrsumN-81" vertex="1">
                    <mxGeometry width="90" height="30" as="geometry"/>
                </mxCell>
                <mxCell id="1xuvL79Rce3t4JZrsumN-83" value="" style="endArrow=classic;html=1;rounded=0;labelBackgroundColor=default;strokeColor=default;align=center;verticalAlign=middle;fontFamily=Times New Roman;fontSize=19;fontColor=default;shape=connector;edgeStyle=none;" parent="1xuvL79Rce3t4JZrsumN-81" edge="1">
                    <mxGeometry width="50" height="50" relative="1" as="geometry">
                        <mxPoint y="31.5" as="sourcePoint"/>
                        <mxPoint x="80" y="31.5" as="targetPoint"/>
                    </mxGeometry>
                </mxCell>
            </root>
        </mxGraphModel>
    </diagram>
</mxfile>